<?xml version="1.0" encoding="UTF-8"?>
<svg id="Laag_1" xmlns="http://www.w3.org/2000/svg" version="1.1" viewBox="0 0 1500 1500">
  <!-- Generator: Adobe Illustrator 30.2.1, SVG Export Plug-In . SVG Version: 2.1.1 Build 1)  -->
  <path d="M593.37,1356.28c-115.73,170.6-347.01,146.34-484.4,22.6C-8.03,1273.5,2.41,1093.17,60.15,965.32c32.47-71.9,61.36-142.53,87.92-217.02,64.93-182.16-10.95-287.68-2.88-420.63,6.8-112.08,70.88-200.86,168.84-246.81,90.49-42.44,185.23-54.87,282.47-27.38,113.6,32.11,152.52,119.86,175.27,221.44,25.3-75.27,51.2-143.55,112.56-191.89C977.38,9.71,1116.14.24,1216.52,66.93c128.16,85.14,182.06,233.65,165.53,384.48-16.46,150.27-.86,289.89,56.04,429.58,82.45,202.41,61.2,476.34-177.45,555.36-172.23,57.03-375.35-37.18-398.08-223.71-10.97-90.06,3.8-177.75,35.58-264.18-23.52,16.09-44.54,31.91-67.47,44.83-66.57,37.52-141.57,13.49-185.12-46.58,31.26,143.84,31.35,286.43-52.19,409.57ZM547.56,539.13c29.52.16,51.84,28.87,61.07,54.08,24.72,67.56,38.91,136.7,50.21,208.68,8.24,52.46,25.19,100.14,71.5,132.55,49.66,34.76,152.98-35.82,169.36-148.34,18.78-128.99-37.12-296.57,67.27-296.61,78.34-.03,71.78,136.81,70.02,190.19-3.9,118.43-36.94,221.83-85.29,327.41-24.97,54.52-25.27,123.11-23.13,181.09,2.63,71.36,42.33,129.48,103.13,164.13,131.46,74.91,306.92,19.12,360.07-125.64,38.37-104.5,24.76-217.29-16.35-318.68-60.99-150.39-78.41-301.88-60.61-463.33,13.45-121.93-26.44-241.55-127.29-315.26-77.76-56.84-193.24-51.43-265.39,11.24-45.55,39.56-69.99,95.62-82.72,152.81l-31.05,139.56c-5.13,23.07-28.7,38-50.31,33.74-14.92-2.94-32.31-23.18-35.01-42.6-11.93-85.82-17.88-241.78-103.23-287.11-85.67-45.5-182.04-35.89-268.15,1.29-84.93,36.68-139.67,112.54-139.23,209.29.57,124.34,68.99,230.84-2.07,428.69-26.3,73.24-54.66,142.52-86.62,213.47-44.49,98.77-62.91,246.1,23.34,331.03,61.4,60.46,145.19,92.77,231.76,88.2,73.21-3.87,131.82-43.77,168.16-106.38,140.19-241.57-53.23-507.96-67.06-674.24-3.51-42.25,21.87-89.52,67.64-89.27ZM563.04,692.84c-1.14-24.21-3.66-37.75-8.35-52.71-3.76,20.6-.07,37.64,8.35,52.71Z"/>
  <path d="M218.94,1029.77c-8.96,139.05,1.8,203.86,119.75,282.09-72.42,24.53-143.55-21.92-170.13-91.57-25.73-67.43-12.02-146.66,50.38-190.53Z"/>
</svg>